{
  "title": "Get On Up 2014 HDRIP READNFO XVID AC3 ACAB",
  "uid": 10779501,
  "size": 1496518392,
  "categoryP": "video",
  "categoryS": "movies",
  "magnet": "?xt=urn:btih:47970418e6fa344b208e1e26f6fa71ec7db60e0d&amp;dn=Get+On+Up+2014+HDRIP+READNFO+XVID+AC3+ACAB&amp;tr=udp%3A%2F%2Ftracker.openbittorrent.com%3A80&amp;tr=udp%3A%2F%2Fopen.demonii.com%3A1337&amp;tr=udp%3A%2F%2Ftracker.coppersurfer.tk%3A6969&amp;tr=udp%3A%2F%2Fexodus.desync.com%3A6969",
  "seeders": 127,
  "leechers": 18,
  "uploader": "xxxlavalxxx",
  "files": -1,
  "time": 1408147168,
  "description": "[IMG]http://i.imgur.com/Y6Pr5Qz.jpg[/IMG]\n\n &lt;a href=&quot;\nhttp://www.imdb.com/title/tt2473602/&quot; rel=&quot;nofollow&quot; target=&quot;_NEW&quot;&gt;\nhttp://www.imdb.com/title/tt2473602/&lt;/a&gt;\n\n\nA chronicle of James Brown's rise from extreme poverty to become one of the most influential musicians in history.\n\nDirector: Tate Taylor\nWriters: Jez Butterworth (screenplay), John-Henry Butterworth (screenplay)\nStars: Chadwick Boseman, Nelsan Ellis, Dan Aykroyd\nGenres: Biography | Drama | Music\nCountry: USA\nLanguage: English\n\n\n\nREADNFO:\nCropped A Bit Off First Line Of Subs Sorted Colours Added Sharpness Usual Stuff Enjoy ....\n\nFormat                                   : AVI\nFormat/Info                              : Audio Video Interleave\nFile size                                : 1.37 GiB\nDuration                                 : 2h 18mn\nOverall bit rate                         : 1 414 Kbps\n\nVideo\nID                                       : 0\nFormat                                   : MPEG-4 Visual\nFormat profile                           : Advanced Simple@L5\nFormat settings, BVOP                    : 2\nFormat settings, QPel                    : No\nFormat settings, GMC                     : No warppoints\nFormat settings, Matrix                  : Default (H.263)\nMuxing mode                              : Packed bitstream\nCodec ID                                 : XVID\nCodec ID/Hint                            : XviD\nDuration                                 : 2h 18mn\nBit rate                                 : 1 150 Kbps\nWidth                                    : 720 pixels\nHeight                                   : 352 pixels\nDisplay aspect ratio                     : 2.045\nFrame rate                               : 30.000 fps\nColor space                              : YUV\nChroma subsampling                       : 4:2:0\nBit depth                                : 8 bits\nScan type                                : Progressive\nCompression mode                         : Lossy\nBits/(Pixel*Frame)                       : 0.151\nStream size                              : 1.11 GiB (81%)\nWriting library                          : XviD 1.2.1 (UTC 2008-12-04)\n\nAudio\nID                                       : 1\nFormat                                   : AC-3\nFormat/Info                              : Audio Coding 3\nMode extension                           : CM (complete main)\nFormat settings, Endianness              : Big\nCodec ID                                 : 2000\nDuration                                 : 2h 18mn\nBit rate mode                            : Constant\nBit rate                                 : 256 Kbps\nChannel(s)                               : 2 channels\nChannel positions                        : Front: L R\nSampling rate                            : 48.0 KHz\nBit depth                                : 16 bits\nCompression mode                         : Lossy\nStream size                              : 254 MiB (18%)\nAlignment                                : Aligned on interleaves\nInterleave, duration                     : 64 ms (1.92 video frames)\nInterleave, preload duration             : 192 ms\nTitle                                    : English\n\n\nscreens\n &lt;a href=&quot;\nhttp://i.imgur.com/5qXwFFh.png&quot; rel=&quot;nofollow&quot; target=&quot;_NEW&quot;&gt;\nhttp://i.imgur.com/5qXwFFh.png&lt;/a&gt; &lt;a href=&quot;\nhttp://i.imgur.com/31n6X53.png&quot; rel=&quot;nofollow&quot; target=&quot;_NEW&quot;&gt;\nhttp://i.imgur.com/31n6X53.png&lt;/a&gt; &lt;a href=&quot;\nhttp://i.imgur.com/TBzpuVE.png&quot; rel=&quot;nofollow&quot; target=&quot;_NEW&quot;&gt;\nhttp://i.imgur.com/TBzpuVE.png&lt;/a&gt; &lt;a href=&quot;\nhttp://i.imgur.com/XKpecBw.png&quot; rel=&quot;nofollow&quot; target=&quot;_NEW&quot;&gt;\nhttp://i.imgur.com/XKpecBw.png&lt;/a&gt;",
  "parsed": {
    "xt": "urn:btih:47970418e6fa344b208e1e26f6fa71ec7db60e0d",
    "dn": "Get On Up 2014 HDRIP READNFO XVID AC3 ACAB",
    "tr": [
      "udp://exodus.desync.com:6969",
      "udp://open.demonii.com:1337",
      "udp://tracker.coppersurfer.tk:6969",
      "udp://tracker.openbittorrent.com:80"
    ],
    "infoHash": "47970418e6fa344b208e1e26f6fa71ec7db60e0d",
    "infoHashBuffer": {
      "type": "Buffer",
      "data": [
        71,
        151,
        4,
        24,
        230,
        250,
        52,
        75,
        32,
        142,
        30,
        38,
        246,
        250,
        113,
        236,
        125,
        182,
        14,
        13
      ]
    },
    "name": "Get On Up 2014 HDRIP READNFO XVID AC3 ACAB",
    "announce": [
      "udp://exodus.desync.com:6969",
      "udp://open.demonii.com:1337",
      "udp://tracker.coppersurfer.tk:6969",
      "udp://tracker.openbittorrent.com:80"
    ],
    "urlList": []
  },
  "previous": 145,
  "peers": 21,
  "last_updated": "2016-12-24T23:57:47.210Z"
}